<svg xmlns="http://www.w3.org/2000/svg" width="16" height="16" fill="none">
  <path d="M12.11745 5.343985c-.1003-.31445-.2507-.60384-.4512-.86816l1.3535-1.36036-.6152-.61523-1.3604 1.35352c-.2643-.20053-.5537-.35092-.8681-.45118-.3099-.10481-.6312-.15722-.9639-.15722-.4056 0-.79751.07747-1.17577.23242-.3737.15495-.7041.37598-.99121.66308l-1.54492 1.55176 4.3271 4.32715 1.5518-1.54492c.2871-.28711.5081-.61751.6631-.99121.1549-.37826.2324-.77018.2324-1.17578 0-.33269-.0524-.65397-.1572-.96387zm-.8887 1.80469c-.1094.26432-.2666.49902-.4717.7041l-.9297.92969-3.0898-3.08985.92969-.92968c.20508-.20508.43978-.36231.7041-.47168.26891-.11394.54911-.1709.84081-.1709.3008 0 .5833.05924.8477.17773.2643.11393.4944.27116.6904.47168.2005.19596.3577.42611.4717.69043.1185.26432.1777.54688.1777.84766 0 .29166-.057.57194-.1709.84082zM5.19253 5.93009L3.64077 7.47501c-.2871.28711-.50813.61979-.66308.99805-.15495.37369-.23242.76334-.23242 1.16894 0 .3327.05013.6563.15039.9707.10482.3099.25748.597.45801.8613l-1.35352 1.3604.61523.6152 1.36036-1.3535c.26432.2005.55143.3532.86132.458.31446.1003.63802.1504.97071.1504.4056 0 .79524-.0775 1.16894-.2324.37826-.155.71094-.376.99805-.6631l1.54492-1.5518-4.32715-4.32711zm1.44922 5.73531c-.26432.1094-.54232.1641-.83398.1641-.30078 0-.58561-.057-.8545-.1709-.26432-.1139-.49674-.2689-.69726-.4648-.19596-.2006-.35091-.433-.46484-.6973-.11394-.2689-.1709-.5537-.1709-.8545 0-.2917.05468-.5697.16406-.83398.11393-.26888.27344-.50586.47852-.71094l.92968-.92969 3.08985 3.08981-.92969.9297c-.20508.2051-.44206.3646-.71094.4785z" clip-rule="evenodd" fill="#89D185" fill-rule="evenodd"/>
</svg>
