<svg xmlns="http://www.w3.org/2000/svg" width="22" height="22" id="svg5288"><style id="style5282"></style><path d="M8 7c-.1292196 0-.2582658.041082-.3572481.1396656L4.2265736 10.383234l-1.379877 1.304048c-.1979645.187314-.1979645.489646 0 .678603l1.379877 1.307992 3.4161783 3.243568c.1979645.187313.5165409.187313.7144875 0l1.3798772-1.308075c.197965-.187314.197965-.489644 0-.678601l-3.058934-2.904598 3.058934-2.9004888c.197965-.1873128.197965-.490466 0-.6786005L8.3572529 7.1390063c-.0990086-.0928345-.2280714-.1396657-.3572394-.1396657z" id="rect931" fill="#c5c5c5" stroke-width=".20000002" stroke-linecap="round" stroke-linejoin="round"/><path id="path8177" d="M14 7c.129219 0 .258265.041082.357248.1396656l3.416178 3.2435684 1.379877 1.304048c.197965.187314.197965.489646 0 .678603l-1.379877 1.307992-3.416178 3.243568c-.197965.187313-.516541.187313-.714488 0l-1.379877-1.308075c-.197965-.187314-.197965-.489644 0-.678601l3.058934-2.904598-3.058934-2.9004888c-.197965-.1873128-.197965-.490466 0-.6786005l1.379864-1.3080754c.09901-.092835.228071-.1396657.357239-.1396657z" fill="#c5c5c5" stroke-width=".20000002" stroke-linecap="round" stroke-linejoin="round"/></svg>