<svg xmlns="http://www.w3.org/2000/svg" width="22" height="22" id="svg5288"><style id="style5282"></style><path style="line-height:normal;font-variant-ligatures:normal;font-variant-position:normal;font-variant-caps:normal;font-variant-numeric:normal;font-variant-alternates:normal;font-feature-settings:normal;text-indent:0;text-align:start;text-decoration-line:none;text-decoration-style:solid;text-decoration-color:#000;text-transform:none;text-orientation:mixed;shape-padding:0;isolation:auto;mix-blend-mode:normal" d="M7.1926933 5.992145l-.5055708 1.5400915.00292.195799-.096438-.17242L5.389588 6.4772592l-1.5780823.911781.3302284 1.5810047.1052054.1724202-.17242-.1052057-1.5839273-.3302283-.9117809 1.5810049 1.0783563 1.204018.1724201.09643-.1957991-.003-1.5371691.502649v1.826484l1.5371691.502648.1957991-.003-.1724201.09643-1.0783563 1.204019.9117809 1.581006 1.5839273-.333152.17242-.102284-.1052048.169497-.3302284 1.583928 1.5780823.911781 1.2040185-1.078356.096438-.172421-.00292.1958.5055709 1.537169h1.8235618l.505571-1.537169-.00292-.1958.096438.172421 1.2040182 1.078356 1.578083-.911781-.330229-1.583928-.105201-.169497.172421.102284 1.583926.333152.911781-1.581006-1.078356-1.204019-.17242-.09643.195799.003 1.537169-.502648v-1.826484l-1.537169-.502649-.195799.003.17242-.09643 1.078361-1.204018-.911781-1.5810049-1.583926.3302283-.172421.1052063.105201-.1724202.330219-1.5810053-1.578082-.911781-1.2040189 1.0783563-.096438.17242.00292-.195799-.505571-1.5400915zm.9117809 4.278357A2.7313908 2.730667 0 0 1 10.836895 13a2.7313908 2.730667 0 0 1-2.7324208 2.729497A2.7313908 2.730667 0 0 1 5.3720539 13a2.7313908 2.730667 0 0 1 2.7324203-2.729498zm3.2730598.683835l.09936.09937.05845.222096a3.8590267 3.8375958 0 0 0-.157808-.321462zm.452969 1.41443L12 13l-.523105 1.949224-1.426119 1.426118-1.9463018.523105-1.9463015-.523105-.6049317-.604931a3.8590267 3.8375958 0 0 0 2.4489502.873791 3.8590267 3.8375958 0 0 0 3.8604568-3.837078 3.8590267 3.8375958 0 0 0-.03214-.438357zm-7.1510519 2.378812a3.8590267 3.8375958 0 0 0 .3419178.490961l-.2893151-.289316z" id="path841" color="#000" font-weight="400" font-family="sans-serif" white-space="normal" overflow="visible" fill="gray" stroke="gray" stroke-width=".37795275" stroke-linecap="round" stroke-linejoin="round"/><path id="path864" d="M16.140381.81933236l-.299033.91092564.0018.1158085-.05702-.101982-.712146-.6378206-.933397.5392954.195319.9351248.06223.1019838-.102018-.062228-.936854-.1953215-.539295.9351247.637822.7121463.101986.057043-.115792-.00173-.909198.2973044v1.0803195l.909198.2973037.115792-.00173-.101986.057041-.637822.7121472.539295.9351253.936854-.1970525.101985-.060489-.06225.1002554-.195319.9368541.933395.5392956.712148-.6378219.05702-.1019871-.0018.115802.299032.9091983h1.07859l.299033-.9091983-.0018-.115802.05702.1019871.712148.6378219.933398-.5393059-.195319-.9368541-.06223-.1002554.101985.060489.93687.1970525.53938-.9351278-.637822-.7121474-.101985-.057043.115808.00173.909198-.2973037V4.4250074l-.909221-.2973044-.115808.0017299.101985-.0570409.637822-.7121462-.539295-.9351248-.936853.1953215-.101986.0622275.062229-.1019837.19532-.9351247-.933397-.5392956-.712145.6378208-.057023.1019837.00183-.1158086-.299043-.91092804zm.539295 2.53054074a1.6155491 1.6151211 0 0 1 1.616157 1.6144299 1.6155491 1.6151211 0 0 1-1.616157 1.6144288 1.6155491 1.6151211 0 0 1-1.616158-1.6144288 1.6155491 1.6151211 0 0 1 1.616158-1.6144299zm1.935933.4044716l.05877.058769.03458.1313667a2.2825175 2.2698416 0 0 0-.093316-.1901362zm.267919.8365998l.100255.3733585-.309408 1.1529168-.843508.8435132-1.151189.3094043-1.151188-.3094043-.3578-.3578018a2.2825175 2.2698416 0 0 0 1.448492.5168259 2.2825175 2.2698416 0 0 0 2.283362-2.2695357 2.2825175 2.2698416 0 0 0-.01895-.2592769zm-4.229667 1.4070076a2.2825175 2.2698416 0 0 0 .202241.2903909l-.171115-.1711227z" style="line-height:normal;font-variant-ligatures:normal;font-variant-position:normal;font-variant-caps:normal;font-variant-numeric:normal;font-variant-alternates:normal;font-feature-settings:normal;text-indent:0;text-align:start;text-decoration-line:none;text-decoration-style:solid;text-decoration-color:#000;text-transform:none;text-orientation:mixed;shape-padding:0;isolation:auto;mix-blend-mode:normal" color="#000" font-weight="400" font-family="sans-serif" white-space="normal" overflow="visible" fill="gray" stroke="gray" stroke-width=".18897636" stroke-linecap="round" stroke-linejoin="round"/></svg>