<svg xmlns="http://www.w3.org/2000/svg" width="22" height="22" id="svg5288">
  <style id="style5282">
    .icon-canvas-transparent,.icon-vs-out{opacity:0;fill:#f6f6f6}
  </style>
  <path style="line-height:normal;font-variant-ligatures:normal;font-variant-position:normal;font-variant-caps:normal;font-variant-numeric:normal;font-variant-alternates:normal;font-feature-settings:normal;text-indent:0;text-align:start;text-decoration-line:none;text-decoration-style:solid;text-decoration-color:#000;text-transform:none;text-orientation:mixed;shape-padding:0;isolation:auto;mix-blend-mode:normal" d="M10.080333 4.077528l-.5055705 1.5400915.00292.195799-.096438-.17242L8.277228 4.5626422l-1.5780823.911781.3302284 1.5810047.1052054.1724202-.17242-.1052057-1.5839273-.3302283-.9117809 1.5810049 1.0783563 1.204018.1724201.09643-.1957991-.003-1.5371691.502649V12l1.5371691.502648.1957991-.003-.1724201.09643-1.0783563 1.204019.9117809 1.581006 1.5839273-.333152.17242-.102284-.1052048.169497-.3302284 1.583928 1.5780823.911781 1.2040185-1.078356.096438-.172421-.00292.1958.5055709 1.537169h1.823562l.505571-1.537169-.0029-.1958.09644.172421 1.204018 1.078356 1.578083-.911781-.330229-1.583928-.105201-.169497.172421.102284 1.583926.333152.911781-1.581006-1.078356-1.204019-.17242-.09643.195799.003L18 12v-1.826484l-1.537169-.502649-.195799.003.17242-.09643 1.078361-1.204018-.911781-1.5810049-1.583926.3302283-.172421.1052063.105201-.1724202.330219-1.5810053-1.578082-.911781-1.204019 1.0783563-.09644.17242.0029-.195799-.505571-1.5400915zm.911781 4.278357a2.7313908 2.730667 0 0 1 2.732421 2.729498 2.7313908 2.730667 0 0 1-2.732421 2.729497 2.7313908 2.730667 0 0 1-2.7324201-2.729497 2.7313908 2.730667 0 0 1 2.7324201-2.729498zm3.27306.683835l.09936.09937.05845.222096a3.8590267 3.8375958 0 0 0-.157808-.321462zm.452969 1.41443l.169497.631233-.523105 1.949224-1.426119 1.426118-1.946302.523105-1.9463013-.523105-.6049317-.604931a3.8590267 3.8375958 0 0 0 2.44895.873791 3.8590267 3.8375958 0 0 0 3.860457-3.837078 3.8590267 3.8375958 0 0 0-.03214-.438357zm-7.1510519 2.378812a3.8590267 3.8375958 0 0 0 .3419178.490961l-.2893151-.289316z" id="path841" color="#000" font-weight="400" font-family="sans-serif" white-space="normal" overflow="visible" fill="gray" stroke="gray" stroke-width=".37795275" stroke-linecap="round" stroke-linejoin="round"/>
  <circle id="path3643" cx="10.992129" cy="11.085297" r="1" fill="gray" stroke="gray" stroke-width=".18897638" stroke-linecap="round" stroke-linejoin="round"/>
</svg>
